<?xml version="1.0" encoding="UTF-8"?>
<svg version="1.1" xmlns="http://www.w3.org/2000/svg" width="241" height="219">
<path d="M0 0 C1.78963165 -0.01029488 1.78963165 -0.01029488 3.61541748 -0.02079773 C6.86356783 -0.03588368 10.11135503 -0.03758148 13.3595252 -0.03185534 C16.08287914 -0.028747 18.8061821 -0.03487423 21.52952874 -0.04089409 C27.96081038 -0.05490232 34.39195909 -0.05340954 40.82324219 -0.04199219 C47.43134149 -0.03051929 54.03903452 -0.04458081 60.6470803 -0.07138866 C66.34507991 -0.09362877 72.04295278 -0.10016431 77.74099267 -0.09431225 C81.13335478 -0.09096064 84.52545672 -0.09323642 87.91778183 -0.11056328 C91.70590766 -0.12551904 95.49315088 -0.11476069 99.28125 -0.09765625 C100.38705414 -0.10732422 101.49285828 -0.11699219 102.63217163 -0.12695312 C114.13992579 -0.01870628 123.40335481 3.41323428 131.77001953 11.40405273 C139.98603966 20.22527077 142.37939099 29.72450215 142.20483398 41.53564453 C142.20347443 43.29124191 142.20347443 43.29124191 142.2020874 45.08230591 C142.1980422 47.60693337 142.1851228 50.13155931 142.16417885 52.65610313 C142.13290591 56.65374811 142.12841158 60.6509183 142.13310242 64.64863586 C142.14056983 75.29057372 142.10724993 85.93228178 142.04667109 96.57404405 C142.00683056 103.58257144 141.98695633 110.59051063 142.00504845 117.59914905 C142.01230056 120.92028412 142.00165302 124.23989106 141.96697426 127.56088829 C141.92870774 131.26152938 141.93320301 134.95988371 141.94702148 138.66064453 C141.92492111 139.75120651 141.90282074 140.84176849 141.88005066 141.96537781 C141.94498495 147.33384831 142.24503535 150.52495493 146.13005066 154.41926575 C147.33789487 155.42083885 148.55109161 156.41599858 149.77001953 157.40405273 C150.81472071 158.54939602 151.8388254 159.71418561 152.83251953 160.90405273 C155.24166394 163.73604928 157.7522366 166.424164 160.35986328 169.07202148 C161.32170532 170.06202148 161.32170532 170.06202148 162.30297852 171.07202148 C163.60170961 172.40540905 164.91229488 173.72736463 166.23510742 175.03686523 C166.83444092 175.6569043 167.43377441 176.27694336 168.05126953 176.91577148 C168.59847656 177.4670874 169.14568359 178.01840332 169.70947266 178.58642578 C171.18908058 181.12226395 170.42814938 182.63060433 169.77001953 185.40405273 C146.88207331 185.45082943 123.994135 185.48606935 101.10615063 185.50767708 C90.47822151 185.51797779 79.85032213 185.53201506 69.22241211 185.55493164 C59.95621654 185.57490243 50.69004253 185.58777793 41.42382604 185.59222972 C36.52009971 185.59483085 31.61643502 185.60091949 26.7127285 185.61551285 C22.0908827 185.62915508 17.46912355 185.63326201 12.84725952 185.6302681 C11.15707744 185.6308153 9.46689226 185.63475298 7.77672768 185.64246368 C-7.60395848 185.70915059 -20.05550648 184.9744691 -31.97998047 174.27905273 C-38.31010278 167.57392317 -42.333298 158.48864447 -42.37715149 149.28953552 C-42.38430679 148.25657852 -42.3914621 147.22362152 -42.39883423 146.15936279 C-42.40152313 145.03153381 -42.40421204 143.90370483 -42.40698242 142.74169922 C-42.41355362 141.54934158 -42.42012482 140.35698395 -42.42689514 139.12849426 C-42.44662547 135.17738482 -42.45829674 131.22628871 -42.46826172 127.27514648 C-42.47231167 125.91086368 -42.47642866 124.54658107 -42.4806118 123.18229866 C-42.49965752 116.76812057 -42.513887 110.35395391 -42.52222377 103.939753 C-42.531979 96.55761124 -42.55825585 89.1757707 -42.59872466 81.79373497 C-42.62899092 76.07463129 -42.64370274 70.35561342 -42.64700478 64.63643128 C-42.6493443 61.22719025 -42.65815911 57.8182712 -42.68346596 54.40911674 C-42.70789955 50.59655918 -42.70688375 46.7847804 -42.69995117 42.97216797 C-42.71276123 41.85850861 -42.72557129 40.74484924 -42.73876953 39.59744263 C-42.66351093 28.18809659 -39.33476999 18.60164519 -31.22998047 10.40405273 C-21.5078434 2.13057848 -12.56528904 -0.05096578 0 0 Z M5.77001953 30.40405273 C5.77001953 71.32405273 5.77001953 112.24405273 5.77001953 154.40405273 C14.02001953 154.40405273 22.27001953 154.40405273 30.77001953 154.40405273 C31.10001953 139.22405273 31.43001953 124.04405273 31.77001953 108.40405273 C48.95751953 108.15405273 48.95751953 108.15405273 54.29418945 108.10620117 C67.0183743 107.89210288 79.1086751 106.57901369 88.77001953 97.40405273 C89.32302734 96.8794043 89.87603516 96.35475586 90.44580078 95.81420898 C98.08244377 87.76067729 100.1038153 77.35791418 99.98486328 66.59936523 C99.23268904 55.41248288 94.69284587 46.6176873 86.66455078 38.93920898 C83.62802421 36.47868333 80.35357779 34.91372196 76.77001953 33.40405273 C75.94501953 33.01217773 75.12001953 32.62030273 74.27001953 32.21655273 C52.54714127 25.1566173 28.61134455 30.40405273 5.77001953 30.40405273 Z " fill="#F89F36" transform="translate(59.22998046875,22.595947265625)"/>
<path d="M0 0 C1.07523674 -0.01210762 1.07523674 -0.01210762 2.17219543 -0.02445984 C3.69460622 -0.03831901 5.21704833 -0.04903294 6.73950195 -0.05688477 C9.0554629 -0.07402215 11.36996791 -0.11787838 13.68554688 -0.16210938 C15.16535409 -0.17224291 16.64517345 -0.18075695 18.125 -0.1875 C19.15659492 -0.21376213 19.15659492 -0.21376213 20.20903015 -0.24055481 C25.22940588 -0.21819962 28.02201207 1.11257937 31.89453125 4.23828125 C35.3956658 8.77265933 35.52513162 12.70904194 35.3671875 18.28515625 C34.7597065 22.08065739 33.51568031 24.11133147 30.98828125 26.93359375 C23.99640312 31.29047303 15.4966958 30.50937137 7.58203125 30.42578125 C6.40318359 30.42513672 5.22433594 30.42449219 4.00976562 30.42382812 C-4.6830221 30.3790968 -4.6830221 30.3790968 -8.10546875 29.23828125 C-8.13012756 25.26897136 -8.14830898 21.29969091 -8.16040039 17.33032227 C-8.16543932 15.97907739 -8.17227052 14.62783799 -8.1809082 13.27661133 C-8.19299294 11.33807691 -8.19816703 9.39950325 -8.203125 7.4609375 C-8.20836182 6.29312744 -8.21359863 5.12531738 -8.21899414 3.92211914 C-7.99810083 -1.29998868 -4.26258197 0.04512052 0 0 Z " fill="#F59F38" transform="translate(98.10546875,76.76171875)"/>
<path d="M0 0 C1.98 1.485 1.98 1.485 4 3 C3.67 4.65 3.34 6.3 3 8 C-19.99157815 8.02335108 -42.98315434 8.04099005 -65.97474194 8.05181217 C-76.64991337 8.05697042 -87.32507744 8.06400419 -98.00024414 8.07543945 C-107.30373763 8.08540064 -116.60722579 8.09185686 -125.91072446 8.09408849 C-130.83771348 8.09539315 -135.76468724 8.09846362 -140.69167137 8.10573006 C-145.3282553 8.11251286 -149.96481768 8.11461233 -154.6014061 8.11310768 C-156.30378016 8.11338299 -158.00615493 8.11537471 -159.7085247 8.11920547 C-162.03208398 8.12417799 -164.35556178 8.12298511 -166.67912292 8.12025452 C-167.97977283 8.12117631 -169.28042273 8.1220981 -170.62048626 8.12304783 C-173.55323134 8.01626681 -176.15524719 7.68594032 -179 7 C-175.27752037 4.51834691 -173.40523216 4.75315981 -168.95759583 4.75949097 C-168.23632734 4.75778212 -167.51505885 4.75607327 -166.77193373 4.75431263 C-164.34891351 4.75101167 -161.92616865 4.76203128 -159.50317383 4.77294922 C-157.76876329 4.7735132 -156.03435228 4.77319702 -154.29994202 4.77206421 C-149.58535236 4.77148919 -144.87086399 4.78326757 -140.15629792 4.79721212 C-135.2315384 4.80969469 -130.30677669 4.81088803 -125.38200378 4.81326294 C-116.05351545 4.81948499 -106.72507387 4.83590561 -97.39660615 4.85596192 C-86.77763996 4.87829837 -76.15867157 4.88930867 -65.53968775 4.89935279 C-43.69309905 4.92027121 -21.84655247 4.95546127 0 5 C0 3.35 0 1.7 0 0 Z " fill="#AB8C61" transform="translate(226,200)"/>
<path d="M0 0 C1.0686731 -0.00043808 1.0686731 -0.00043808 2.15893555 -0.00088501 C4.51273802 0.00050782 6.86622356 0.01606659 9.2199707 0.03173828 C10.85235928 0.03546858 12.4847501 0.03831547 14.11714172 0.04031372 C18.41291489 0.04794884 22.70855274 0.06759626 27.00427246 0.08972168 C31.38800221 0.11018273 35.77175383 0.11931599 40.15551758 0.12939453 C48.75649112 0.15084229 57.3573547 0.18497674 65.95825195 0.22705078 C65.29825195 1.21705078 64.63825195 2.20705078 63.95825195 3.22705078 C61.13188171 3.59454346 61.13188171 3.59454346 57.4765625 3.58349609 C56.47867706 3.58656265 56.47867706 3.58656265 55.46063232 3.58969116 C53.25513467 3.59270602 51.0503799 3.57419629 48.8449707 3.55517578 C47.31281214 3.55211813 45.78065081 3.55024206 44.24848938 3.54949951 C41.03290205 3.54489141 37.81756444 3.53045077 34.60205078 3.50830078 C30.48624159 3.48008946 26.37062977 3.46909672 22.25473309 3.46461868 C19.08824194 3.46045351 15.92179044 3.45062574 12.7553196 3.43874359 C11.23831307 3.43305631 9.72130278 3.42829256 8.20429039 3.42447662 C6.0788347 3.41757424 3.95353143 3.40392143 1.828125 3.38818359 C0.01516182 3.37794159 0.01516182 3.37794159 -1.83442688 3.36749268 C-4.69230708 3.24235207 -7.26422704 2.88423566 -10.04174805 2.22705078 C-6.32014058 -0.25402086 -4.44428372 -0.01529874 0 0 Z " fill="#AE8C61" transform="translate(57.041748046875,204.77294921875)"/>
<path d="M0 0 C0.66 0.33 1.32 0.66 2 1 C1.67 1.66 1.34 2.32 1 3 C1.66 3.33 2.32 3.66 3 4 C2.34 4.66 1.68 5.32 1 6 C0.01 6 -0.98 6 -2 6 C-2.4021875 7.7015625 -2.4021875 7.7015625 -2.8125 9.4375 C-3.204375 10.613125 -3.59625 11.78875 -4 13 C-4.99 13.33 -5.98 13.66 -7 14 C-7 54.26 -7 94.52 -7 136 C-7.33 136 -7.66 136 -8 136 C-8 97.72 -8 59.44 -8 20 C-8.66 19.67 -9.32 19.34 -10 19 C-7.70823551 11.66635363 -5.02549351 5.84632412 0 0 Z " fill="#F0A13B" transform="translate(27,34)"/>
<path d="M0 0 C0.33 0 0.66 0 1 0 C0.99962297 0.61199533 0.99924595 1.22399065 0.9988575 1.85453129 C0.99173323 16.7616751 1.01770208 31.66848711 1.0802784 46.57548618 C1.10974651 53.78453179 1.12810848 60.99328313 1.12011719 68.20239258 C1.11317846 74.48759287 1.12728986 80.77233754 1.16643608 87.05742592 C1.18642679 90.38401487 1.19289981 93.7097304 1.18042374 97.03637886 C1.16826571 100.75486551 1.19331084 104.47138298 1.22705078 108.18969727 C1.21482986 109.28661896 1.20260895 110.38354065 1.1900177 111.51370239 C1.29384416 117.86537784 2.12979512 121.35562613 6.714674 125.88395596 C7.35091037 126.43639776 7.35091037 126.43639776 8 127 C7.01 127.495 7.01 127.495 6 128 C6 127.34 6 126.68 6 126 C5.01 125.67 4.02 125.34 3 125 C3 124.34 3 123.68 3 123 C1.68 122.34 0.36 121.68 -1 121 C-0.67 81.07 -0.34 41.14 0 0 Z " fill="#D1A054" transform="translate(200,53)"/>
<path d="M0 0 C5.61761478 6.38365316 5.26760829 13.86355965 5.13525391 21.89233398 C5.12579239 22.96624893 5.11633087 24.04016388 5.10658264 25.1466217 C5.07302903 28.67995692 5.0248793 32.21293218 4.9765625 35.74609375 C4.95038261 38.20230684 4.92511663 40.65852984 4.90072632 43.11476135 C4.83420068 49.56745973 4.75528043 56.01994901 4.67376709 62.47247314 C4.59272482 69.06164549 4.52342077 75.65094017 4.453125 82.24023438 C4.31356312 95.16030166 4.16130387 108.0801868 4 121 C3.67 121 3.34 121 3 121 C2.99365209 120.18388748 2.99365209 120.18388748 2.98717594 119.35128784 C2.88368848 106.08790995 2.7749653 92.82458378 2.66066074 79.56129456 C2.60554015 73.1471626 2.55213777 66.73302601 2.50268555 60.31884766 C2.45488146 54.12669014 2.40253334 47.93458606 2.34705925 41.74249268 C2.32670824 39.38227675 2.30798349 37.02204622 2.29092598 34.6618042 C2.26672082 31.35130548 2.23668902 28.04090631 2.20532227 24.73046875 C2.1995668 23.75870193 2.19381134 22.78693512 2.18788147 21.78572083 C2.67346058 12.83015593 2.67346058 12.83015593 0 5 C-0.04063832 3.33382885 -0.042721 1.66611905 0 0 Z " fill="#EA9B3A" transform="translate(196,42)"/>
<path d="M0 0 C0.495 1.485 0.495 1.485 1 3 C-31.67 2.505 -31.67 2.505 -65 2 C-65 1.67 -65 1.34 -65 1 C-19.60382981 -0.19388403 -19.60382981 -0.19388403 0 0 Z " fill="#DBA556" transform="translate(130,51)"/>
<path d="M0 0 C0 0.66 0 1.32 0 2 C-3.64037537 2.82200683 -7.0885247 3.16783601 -10.81640625 3.28125 C-12.45706055 3.33732422 -12.45706055 3.33732422 -14.13085938 3.39453125 C-16.42252236 3.46496369 -18.71418904 3.53527578 -21.00585938 3.60546875 C-22.09833984 3.64285156 -23.19082031 3.68023437 -24.31640625 3.71875 C-25.31099854 3.74904297 -26.30559082 3.77933594 -27.33032227 3.81054688 C-29.69626286 3.97844536 -31.71458989 4.42075142 -34 5 C-36.796875 4.66015625 -36.796875 4.66015625 -39.75 4.0625 C-40.73484375 3.86785156 -41.7196875 3.67320312 -42.734375 3.47265625 C-43.48203125 3.31667969 -44.2296875 3.16070312 -45 3 C-45 2.67 -45 2.34 -45 2 C-43.51790039 1.970271 -43.51790039 1.970271 -42.00585938 1.93994141 C-38.30802747 1.86334395 -34.61056158 1.77471438 -30.91308594 1.68261719 C-29.3187589 1.64454948 -27.72435245 1.60965963 -26.12988281 1.578125 C-23.8258849 1.53198737 -21.52242334 1.47407935 -19.21875 1.4140625 C-18.51633179 1.40251129 -17.81391357 1.39096008 -17.09020996 1.37905884 C-13.44665804 1.27260963 -10.19865378 0.86859779 -6.67382812 -0.08837891 C-3 -1 -3 -1 0 0 Z " fill="#D69E55" transform="translate(138,128)"/>
<path d="M0 0 C0.33 0 0.66 0 1 0 C1.57398451 5.28278339 1.89929398 9.65441607 -1.5 14 C-5.00359772 17.52024189 -8.11060481 18.43892186 -13 19 C-13.99 18.34 -14.98 17.68 -16 17 C-14.375 15.4375 -14.375 15.4375 -12 14 C-8.75 14.3125 -8.75 14.3125 -6 15 C-6 14.01 -6 13.02 -6 12 C-6.66 11.67 -7.32 11.34 -8 11 C-5 10 -5 10 -2 10 C-1.34 6.7 -0.68 3.4 0 0 Z " fill="#E39B42" transform="translate(132,88)"/>
<path d="M0 0 C1.32 0.66 2.64 1.32 4 2 C3.67 2.66 3.34 3.32 3 4 C14.22 4 25.44 4 37 4 C37 4.33 37 4.66 37 5 C23.14 5 9.28 5 -5 5 C-5 8.63 -5 12.26 -5 16 C-5.33 16 -5.66 16 -6 16 C-6 12.04 -6 8.08 -6 4 C-4.35 4 -2.7 4 -1 4 C-0.67 2.68 -0.34 1.36 0 0 Z " fill="#EC9D40" transform="translate(70,47)"/>
<path d="M0 0 C1.66666667 1.66666667 3.33333333 3.33333333 5 5 C5.928125 5.886875 6.85625 6.77375 7.8125 7.6875 C10 10 10 10 10 12 C11.32 12 12.64 12 14 12 C14.33 13.32 14.66 14.64 15 16 C16.32 16.33 17.64 16.66 19 17 C16 18 16 18 14.01953125 17.1015625 C8.06101882 13.11515949 3.52407439 8.54723018 -1 3 C-0.67 2.01 -0.34 1.02 0 0 Z " fill="#E4A249" transform="translate(23,187)"/>
<path d="M0 0 C0.66 0.33 1.32 0.66 2 1 C1.67 1.66 1.34 2.32 1 3 C1.66 3.33 2.32 3.66 3 4 C2.34 4.66 1.68 5.32 1 6 C0.01 6 -0.98 6 -2 6 C-2.4021875 7.7015625 -2.4021875 7.7015625 -2.8125 9.4375 C-3.204375 10.613125 -3.59625 11.78875 -4 13 C-4.99 13.33 -5.98 13.66 -7 14 C-7 15.32 -7 16.64 -7 18 C-7.66 18 -8.32 18 -9 18 C-8.6437915 11.23203853 -4.73652774 4.73652774 0 0 Z " fill="#D99948" transform="translate(27,34)"/>
<path d="M0 0 C0.33 1.98 0.66 3.96 1 6 C1.66 6 2.32 6 3 6 C3 6.66 3 7.32 3 8 C3.66 8 4.32 8 5 8 C5.33 9.65 5.66 11.3 6 13 C4.68 13 3.36 13 2 13 C-0.0625 10.1875 -0.0625 10.1875 -2 7 C-2.5775 6.443125 -3.155 5.88625 -3.75 5.3125 C-5 4 -5 4 -5 1 C-2 0 -2 0 0 0 Z " fill="#E7AE41" transform="translate(152,60)"/>
<path d="M0 0 C1.32 0.99 2.64 1.98 4 3 C3.67 4.65 3.34 6.3 3 8 C-2.28 7.67 -7.56 7.34 -13 7 C-13 6.67 -13 6.34 -13 6 C-6.565 5.505 -6.565 5.505 0 5 C0 3.35 0 1.7 0 0 Z " fill="#D29845" transform="translate(226,200)"/>
<path d="M0 0 C0 0.66 0 1.32 0 2 C1.65 2.33 3.3 2.66 5 3 C5.66 4.98 6.32 6.96 7 9 C2.33333333 6.66666667 -2.33333333 4.33333333 -7 2 C-7 1.67 -7 1.34 -7 1 C-2.25 0 -2.25 0 0 0 Z " fill="#D89641" transform="translate(139,53)"/>
<path d="M0 0 C10.89 0 21.78 0 33 0 C32.34 0.99 31.68 1.98 31 3 C29.68 3 28.36 3 27 3 C27 2.34 27 1.68 27 1 C18.09 1 9.18 1 0 1 C0 0.67 0 0.34 0 0 Z " fill="#EEA44B" transform="translate(90,205)"/>
<path d="M0 0 C0 0.66 0 1.32 0 2 C-1.6396875 2.8971875 -1.6396875 2.8971875 -3.3125 3.8125 C-5.91074129 5.29044697 -8.04349493 6.69822933 -10 9 C-11.32 8.34 -12.64 7.68 -14 7 C-12.23462904 5.82508418 -10.46250287 4.66031316 -8.6875 3.5 C-7.70136719 2.8503125 -6.71523438 2.200625 -5.69921875 1.53125 C-3 0 -3 0 0 0 Z " fill="#D69B4F" transform="translate(43,25)"/>
<path d="M0 0 C7.48291572 6.15034169 7.48291572 6.15034169 10 10 C7.625 10.1875 7.625 10.1875 5 10 C3 7 3 7 3 4 C2.01 3.67 1.02 3.34 0 3 C0 2.01 0 1.02 0 0 Z " fill="#DBA04A" transform="translate(209,182)"/>
<path d="M0 0 C0.33 0.66 0.66 1.32 1 2 C0.22265625 3.7265625 0.22265625 3.7265625 -0.9375 5.625 C-1.618125 6.73875 -2.29875 7.8525 -3 9 C-3.99 9 -4.98 9 -6 9 C-6.33 9.99 -6.66 10.98 -7 12 C-8.32 11.67 -9.64 11.34 -11 11 C-10.37351563 10.45730469 -9.74703125 9.91460937 -9.1015625 9.35546875 C-8.28429687 8.64003906 -7.46703125 7.92460938 -6.625 7.1875 C-5.40683594 6.12595703 -5.40683594 6.12595703 -4.1640625 5.04296875 C-1.83816812 3.00018747 -1.83816812 3.00018747 0 0 Z " fill="#D79F51" transform="translate(153,113)"/>
<path d="M0 0 C1.51297182 2.40295525 2.03665969 3.63340307 1.75 6.5 C1.03060994 8.89796688 0.35428208 10.89333898 -1 13 C-1.99 13.33 -2.98 13.66 -4 14 C-3.79503906 13.32453125 -3.59007812 12.6490625 -3.37890625 11.953125 C-3.10949219 11.06109375 -2.84007812 10.1690625 -2.5625 9.25 C-2.16224609 7.92742187 -2.16224609 7.92742187 -1.75390625 6.578125 C-1.11531506 4.39434165 -0.53224167 2.21164502 0 0 Z " fill="#D59C4A" transform="translate(158,99)"/>
<path d="M0 0 C1.32 0.66 2.64 1.32 4 2 C3.67 2.66 3.34 3.32 3 4 C0.35139573 4.59355614 -2.29197322 4.74209269 -5 5 C-5 8.63 -5 12.26 -5 16 C-5.33 16 -5.66 16 -6 16 C-6 12.04 -6 8.08 -6 4 C-4.35 4 -2.7 4 -1 4 C-0.67 2.68 -0.34 1.36 0 0 Z " fill="#E4A344" transform="translate(70,47)"/>
<path d="M0 0 C0.33 0 0.66 0 1 0 C1 3.3 1 6.6 1 10 C2.32 10.66 3.64 11.32 5 12 C7.25 14.625 7.25 14.625 9 17 C8.34 17.33 7.68 17.66 7 18 C7 17.34 7 16.68 7 16 C6.01 15.67 5.02 15.34 4 15 C4 14.34 4 13.68 4 13 C2.68 12.34 1.36 11.68 0 11 C0 7.37 0 3.74 0 0 Z " fill="#DDA04E" transform="translate(199,163)"/>
<path d="M0 0 C0.66 0 1.32 0 2 0 C2 4.95 2 9.9 2 15 C0.16163081 11.32326162 -0.93651813 7.95007553 -2 4 C-1.34 3.34 -0.68 2.68 0 2 C0 1.34 0 0.68 0 0 Z " fill="#D89F3D" transform="translate(157,70)"/>
<path d="M0 0 C0.33 0.66 0.66 1.32 1 2 C1.66 2 2.32 2 3 2 C3.33 3.65 3.66 5.3 4 7 C2.68 7 1.36 7 0 7 C-0.99 5.02 -1.98 3.04 -3 1 C-2.01 0.67 -1.02 0.34 0 0 Z " fill="#EDA852" transform="translate(154,66)"/>
<path d="M0 0 C0.80824219 0.11085937 1.61648437 0.22171875 2.44921875 0.3359375 C3.37154297 0.47902344 3.37154297 0.47902344 4.3125 0.625 C-0.06758443 3.20964442 -2.79875113 2.43979148 -7.6875 1.625 C-4.33422361 -0.61051759 -3.78006343 -0.54783528 0 0 Z " fill="#E3AC54" transform="translate(54.6875,205.375)"/>
<path d="M0 0 C0 0.66 0 1.32 0 2 C-3.3 2.33 -6.6 2.66 -10 3 C-4.15384615 -1.38461538 -4.15384615 -1.38461538 0 0 Z " fill="#DE9B44" transform="translate(138,128)"/>
<path d="M0 0 C0.5625 1.9375 0.5625 1.9375 1 4 C0.67 4.33 0.34 4.66 0 5 C-2.33944736 4.71269945 -4.6739143 4.38063221 -7 4 C-7 3.67 -7 3.34 -7 3 C-5.5459375 2.5359375 -5.5459375 2.5359375 -4.0625 2.0625 C-1.15934208 1.30476658 -1.15934208 1.30476658 0 0 Z " fill="#C1A567" transform="translate(229,203)"/>
<path d="M0 0 C2.33333333 2.33333333 4.66666667 4.66666667 7 7 C4.6875 7.25 4.6875 7.25 2 7 C0.125 5.1875 0.125 5.1875 -1 3 C-0.67 2.01 -0.34 1.02 0 0 Z " fill="#E2A65D" transform="translate(23,187)"/>
<path d="M0 0 C2.83374881 3.20336822 3.5205537 5.78087253 4 10 C3.01 10.495 3.01 10.495 2 11 C0.57741188 7.17679443 -0.24042276 4.08718695 0 0 Z " fill="#DA9F4C" transform="translate(196,42)"/>
<path d="M0 0 C0.66 0.33 1.32 0.66 2 1 C1.67 1.66 1.34 2.32 1 3 C1.66 3.33 2.32 3.66 3 4 C2.34 4.66 1.68 5.32 1 6 C0.01 6 -0.98 6 -2 6 C-1.125 1.125 -1.125 1.125 0 0 Z " fill="#DF9040" transform="translate(27,34)"/>
</svg>
